<?xml version="1.0" encoding="utf-8"?>
<!-- Svg Vector Icons : http://www.onlinewebfonts.com/icon -->
<!DOCTYPE svg PUBLIC "-//W3C//DTD SVG 1.1//EN" "http://www.w3.org/Graphics/SVG/1.1/DTD/svg11.dtd">
<svg version="1.1" xmlns="http://www.w3.org/2000/svg" xmlns:xlink="http://www.w3.org/1999/xlink" x="0px" y="0px" viewBox="0 0 1000 1000" enable-background="new 0 0 1000 1000" xml:space="preserve">
<metadata> Svg Vector Icons : http://www.onlinewebfonts.com/icon </metadata>
<g><path d="M177.4,565.3H109c-51,0-99-24.5-99-81.2C10,442.8,8.5,304,73.3,304c10.7,0,63.8,43.4,132.7,43.4c23.5,0,45.9-4.1,67.9-11.7c-1.5,11.2-2.6,22.5-2.6,33.7c0,46.4,14.8,92.4,41.3,130.7C259.6,501.5,211.6,524.5,177.4,565.3z M206,304c-72,0-130.7-58.7-130.7-130.7S134,42.7,206,42.7c72,0,130.7,58.7,130.7,130.7S278,304,206,304z M723.1,957.3H276.9c-81.7,0-136.3-49.5-136.3-132.2c0-115.3,27.1-292.5,176.6-292.5c17.4,0,80.6,70.9,182.7,70.9c102.1,0,165.4-70.9,182.7-70.9c149.5,0,176.6,177.1,176.6,292.5C859.3,907.8,804.7,957.3,723.1,957.3z M500,565.3c-108.2,0-196-87.8-196-196c0-108.2,87.8-196,196-196c108.2,0,196,87.8,196,196C696,477.5,608.2,565.3,500,565.3z M794,304c-72,0-130.7-58.7-130.7-130.7S722,42.7,794,42.7c72,0,130.7,58.7,130.7,130.7S866,304,794,304z M891,565.3h-68.4c-34.2-40.8-82.2-63.8-135.3-65.3c26.5-38.3,41.3-84.2,41.3-130.7c0-11.2-1-22.5-2.6-33.7c22,7.7,44.4,11.7,67.9,11.7c68.9,0,122-43.4,132.7-43.4c64.8,0,63.3,138.8,63.3,180.2C990,540.8,942,565.3,891,565.3z"/></g>
</svg>